<svg width="32" height="32" viewBox="0 0 32 32" fill="none" xmlns="http://www.w3.org/2000/svg">
<g id="mdi:calendar-check">
<path id="Vector" d="M24.3175 21.9048H6.53968V9.33337H24.3175M24.3175 3.61909H23.0476V1.33337H20.5079V3.61909H10.3492V1.33337H7.80952V3.61909H6.53968C5.86612 3.61909 5.22014 3.8599 4.74386 4.28856C4.26757 4.71721 4 5.29859 4 5.9048V21.9048C4 22.511 4.26757 23.0924 4.74386 23.521C5.22014 23.9497 5.86612 24.1905 6.53968 24.1905H24.3175C24.991 24.1905 25.637 23.9497 26.1133 23.521C26.5896 23.0924 26.8571 22.511 26.8571 21.9048V5.9048C26.8571 5.29859 26.5896 4.71721 26.1133 4.28856C25.637 3.8599 24.991 3.61909 24.3175 3.61909ZM21.181 12.8305L19.8349 11.6191L13.6381 17.1962L10.946 14.7734L9.6 15.9848L13.6381 19.6191L21.181 12.8305Z" fill="white"/>
</g>
</svg>
