<svg width="64" height="64" viewBox="0 0 64 64" fill="none" xmlns="http://www.w3.org/2000/svg">
<path d="M58.1482 26.7773H56.0002V26.6666H32.0002V37.3333H47.0708C44.8722 43.5426 38.9642 48 32.0002 48C23.1642 48 16.0002 40.836 16.0002 32C16.0002 23.164 23.1642 16 32.0002 16C36.0788 16 39.7895 17.5386 42.6148 20.052L50.1575 12.5093C45.3948 8.07065 39.0242 5.33331 32.0002 5.33331C17.2735 5.33331 5.3335 17.2733 5.3335 32C5.3335 46.7266 17.2735 58.6666 32.0002 58.6666C46.7268 58.6666 58.6668 46.7266 58.6668 32C58.6668 30.212 58.4828 28.4666 58.1482 26.7773Z" fill="#FFC107"/>
<path d="M8.4082 19.588L17.1695 26.0133C19.5402 20.144 25.2815 16 32.0002 16C36.0789 16 39.7895 17.5386 42.6149 20.052L50.1575 12.5093C45.3949 8.07065 39.0242 5.33331 32.0002 5.33331C21.7575 5.33331 12.8749 11.116 8.4082 19.588Z" fill="#FF3D00"/>
<path d="M31.9998 58.6667C38.8878 58.6667 45.1464 56.0307 49.8784 51.744L41.6251 44.76C38.8578 46.8645 35.4764 48.0028 31.9998 48C25.0638 48 19.1744 43.5773 16.9558 37.4053L8.25977 44.1053C12.6731 52.7413 21.6358 58.6667 31.9998 58.6667Z" fill="#4CAF50"/>
<path d="M58.148 26.7774H56V26.6667H32V37.3334H47.0707C46.0189 40.2886 44.1245 42.8709 41.6213 44.7614L41.6253 44.7587L49.8787 51.7427C49.2947 52.2734 58.6667 45.3334 58.6667 32C58.6667 30.212 58.4827 28.4667 58.148 26.7774Z" fill="#1976D2"/>
</svg>
